<?xml version="1.0" encoding="UTF-8" standalone="no"?>
<!DOCTYPE svg PUBLIC "-//W3C//DTD SVG 1.1//EN"
 "http://www.w3.org/Graphics/SVG/1.1/DTD/svg11.dtd">
<!-- Generated by graphviz version 2.38.0 (20140413.2041)
 -->
<!-- Title: root Pages: 1 -->
<svg width="389pt" height="260pt"
 viewBox="0.00 0.00 389.00 260.00" xmlns="http://www.w3.org/2000/svg" xmlns:xlink="http://www.w3.org/1999/xlink">
<g id="graph0" class="graph" transform="scale(1 1) rotate(0) translate(4.119 256)">
<title>root</title>
<!-- AltGUI -->
<g id="node1" class="node"><title>AltGUI</title>
<g id="a_node1"><a xlink:href="AltGUI/index.html" xlink:title="AltGUI" target="_parent">
<polygon fill="none" stroke="gray" points="58.881,-180 -0.119,-180 -0.119,-144 58.881,-144 58.881,-180"/>
<text text-anchor="middle" x="29.381" y="-158.3" font-family="Times,serif" font-size="14.00" fill="#ffcc00">AltGUI</text>
</a>
</g>
</g>
<!-- BlankSlate -->
<g id="node2" class="node"><title>BlankSlate</title>
<g id="a_node2"><a xlink:href="BlankSlate/index.html" xlink:title="BlankSlate" target="_parent">
<polygon fill="none" stroke="gray" points="233.88,-252 156.88,-252 156.88,-216 233.88,-216 233.88,-252"/>
<text text-anchor="middle" x="195.38" y="-230.3" font-family="Times,serif" font-size="14.00" fill="#ffcc00">BlankSlate</text>
</a>
</g>
</g>
<!-- BlankSlate&#45;&gt;AltGUI -->
<g id="edge1" class="edge"><title>BlankSlate&#45;&gt;AltGUI</title>
<g id="a_edge1"><a xlink:title="Optionally requires">
<path fill="none" stroke="gray" stroke-dasharray="5,2" d="M148.23,-213.12C119.4,-200.96 83.413,-185.78 58.638,-175.34"/>
<polygon fill="gray" stroke="gray" points="147.136,-216.457 157.71,-217.12 149.857,-210.008 147.136,-216.457"/>
</a>
</g>
</g>
<!-- DataRegistry -->
<g id="node3" class="node"><title>DataRegistry</title>
<g id="a_node3"><a xlink:href="DataRegistry/index.html" xlink:title="DataRegistry" target="_parent">
<polygon fill="none" stroke="blue" points="204.38,-180 114.38,-180 114.38,-144 204.38,-144 204.38,-180"/>
<text text-anchor="middle" x="159.38" y="-158.3" font-family="Times,serif" font-size="14.00" fill="#ffcc00">DataRegistry</text>
</a>
</g>
</g>
<!-- BlankSlate&#45;&gt;DataRegistry -->
<g id="edge2" class="edge"><title>BlankSlate&#45;&gt;DataRegistry</title>
<g id="a_edge2"><a xlink:title="Optionally requires">
<path fill="none" stroke="gray" stroke-dasharray="5,2" d="M181.9,-206.8C177.31,-197.87 172.3,-188.13 168.18,-180.1"/>
<polygon fill="gray" stroke="gray" points="178.792,-208.41 186.48,-215.7 185.016,-205.207 178.792,-208.41"/>
</a>
</g>
</g>
<!-- Errors -->
<g id="node4" class="node"><title>Errors</title>
<g id="a_node4"><a xlink:href="Errors/index.html" xlink:title="Errors" target="_parent">
<polygon fill="none" stroke="gray" points="113.381,-108 59.381,-108 59.381,-72 113.381,-72 113.381,-108"/>
<text text-anchor="middle" x="86.381" y="-86.3" font-family="Times,serif" font-size="14.00" fill="#ffcc00">Errors</text>
</a>
</g>
</g>
<!-- BlankSlate&#45;&gt;Errors -->
<g id="edge3" class="edge"><title>BlankSlate&#45;&gt;Errors</title>
<g id="a_edge3"><a xlink:title="Optionally requires">
<path fill="none" stroke="gray" stroke-dasharray="5,2" d="M148.42,-214.24C132.93,-205.9 116.97,-194.6 106.38,-180 90.856,-158.59 87.075,-127.24 86.323,-108.03"/>
<polygon fill="gray" stroke="gray" points="146.938,-217.413 157.44,-218.81 150.101,-211.168 146.938,-217.413"/>
</a>
</g>
</g>
<!-- LoadManager -->
<g id="node5" class="node"><title>LoadManager</title>
<g id="a_node5"><a xlink:href="LoadManager/index.html" xlink:title="LoadManager" target="_parent">
<polygon fill="none" stroke="gray" points="263.88,-108 168.88,-108 168.88,-72 263.88,-72 263.88,-108"/>
<text text-anchor="middle" x="216.38" y="-86.3" font-family="Times,serif" font-size="14.00" fill="#ffcc00">LoadManager</text>
</a>
</g>
</g>
<!-- BlankSlate&#45;&gt;LoadManager -->
<g id="edge4" class="edge"><title>BlankSlate&#45;&gt;LoadManager</title>
<g id="a_edge4"><a xlink:title="Optionally requires">
<path fill="none" stroke="gray" stroke-dasharray="5,2" d="M206.19,-206.17C209.06,-197.91 211.79,-188.7 213.38,-180 217.88,-155.36 217.88,-126.27 217.28,-108.22"/>
<polygon fill="gray" stroke="gray" points="202.859,-205.086 202.7,-215.68 209.431,-207.498 202.859,-205.086"/>
</a>
</g>
</g>
<!-- Panel -->
<g id="node6" class="node"><title>Panel</title>
<g id="a_node6"><a xlink:href="Panel/index.html" xlink:title="Panel" target="_parent">
<polygon fill="none" stroke="gray" points="243.38,-36 189.38,-36 189.38,-0 243.38,-0 243.38,-36"/>
<text text-anchor="middle" x="216.38" y="-14.3" font-family="Times,serif" font-size="14.00" fill="#ffcc00">Panel</text>
</a>
</g>
</g>
<!-- BlankSlate&#45;&gt;Panel -->
<g id="edge5" class="edge"><title>BlankSlate&#45;&gt;Panel</title>
<g id="a_edge5"><a xlink:title="Optionally requires">
<path fill="none" stroke="gray" stroke-dasharray="5,2" d="M216.65,-208.04C235.49,-184.15 261.63,-146.19 272.38,-108 276.71,-92.598 278.71,-86.696 272.38,-72 266.19,-57.614 253.96,-45.308 242.5,-36.184"/>
<polygon fill="gray" stroke="gray" points="213.879,-205.901 210.32,-215.88 219.325,-210.298 213.879,-205.901"/>
</a>
</g>
</g>
<!-- Settings -->
<g id="node7" class="node"><title>Settings</title>
<g id="a_node7"><a xlink:href="Settings/index.html" xlink:title="Settings" target="_parent">
<polygon fill="none" stroke="gray" points="380.88,-180 319.88,-180 319.88,-144 380.88,-144 380.88,-180"/>
<text text-anchor="middle" x="350.38" y="-158.3" font-family="Times,serif" font-size="14.00" fill="#ffcc00">Settings</text>
</a>
</g>
</g>
<!-- BlankSlate&#45;&gt;Settings -->
<g id="edge6" class="edge"><title>BlankSlate&#45;&gt;Settings</title>
<g id="a_edge6"><a xlink:title="Optionally requires">
<path fill="none" stroke="gray" stroke-dasharray="5,2" d="M242.25,-211.83C267.37,-200.49 297.6,-186.83 319.71,-176.85"/>
<polygon fill="gray" stroke="gray" points="240.575,-208.746 232.9,-216.05 243.455,-215.126 240.575,-208.746"/>
</a>
</g>
</g>
<!-- DataRegistry&#45;&gt;Errors -->
<g id="edge7" class="edge"><title>DataRegistry&#45;&gt;Errors</title>
<g id="a_edge7"><a xlink:title="Requires">
<path fill="none" stroke="gray" d="M134.1,-136.76C124.25,-127.32 113.2,-116.72 104.22,-108.1"/>
<polygon fill="gray" stroke="gray" points="131.699,-139.307 141.34,-143.7 136.543,-134.253 131.699,-139.307"/>
</a>
</g>
</g>
<!-- DataRegistry&#45;&gt;LoadManager -->
<g id="edge8" class="edge"><title>DataRegistry&#45;&gt;LoadManager</title>
<g id="a_edge8"><a xlink:title="Requires">
<path fill="none" stroke="gray" d="M179.8,-135.92C187.31,-126.69 195.64,-116.47 202.45,-108.1"/>
<polygon fill="gray" stroke="gray" points="177.066,-133.734 173.47,-143.7 182.496,-138.152 177.066,-133.734"/>
</a>
</g>
</g>
<!-- DataRegistry&#45;&gt;Panel -->
<g id="edge9" class="edge"><title>DataRegistry&#45;&gt;Panel</title>
<g id="a_edge9"><a xlink:title="Requires">
<path fill="none" stroke="gray" d="M154.34,-133.8C152.21,-115.56 151.9,-91.411 160.38,-72 166.65,-57.649 178.89,-45.346 190.33,-36.215"/>
<polygon fill="gray" stroke="gray" points="150.885,-134.363 155.74,-143.78 157.817,-133.391 150.885,-134.363"/>
</a>
</g>
</g>
<!-- LoadManager&#45;&gt;Panel -->
<g id="edge10" class="edge"><title>LoadManager&#45;&gt;Panel</title>
<g id="a_edge10"><a xlink:title="Loaded by">
<path fill="none" stroke="purple" stroke-dasharray="5,2" d="M216.38,-61.665C216.38,-53.054 216.38,-43.791 216.38,-36.104"/>
<polygon fill="purple" stroke="purple" points="212.88,-61.697 216.38,-71.697 219.88,-61.697 212.88,-61.697"/>
</a>
</g>
</g>
</g>
</svg>
