<?xml version="1.0" encoding="UTF-8" standalone="no"?>
<!DOCTYPE svg PUBLIC "-//W3C//DTD SVG 1.1//EN"
 "http://www.w3.org/Graphics/SVG/1.1/DTD/svg11.dtd">
<!-- Generated by graphviz version 2.26.3 (20100126.1600)
 -->
<!-- Title: root Pages: 1 -->
<svg width="226pt" height="190pt"
 viewBox="0.00 0.00 226.00 190.00" xmlns="http://www.w3.org/2000/svg" xmlns:xlink="http://www.w3.org/1999/xlink">
<g id="graph1" class="graph" transform="scale(1 1) rotate(0) translate(4 186)">
<title>root</title>
<!-- BlankSlate -->
<g id="node2" class="node"><title>BlankSlate</title>
<a xlink:href="BlankSlate/index.html" xlink:title="BlankSlate" target="_parent">
<polygon fill="none" stroke="gray" points="141,-181 51,-181 51,-145 141,-145 141,-181"/>
<text text-anchor="middle" x="96" y="-158.4" font-family="Times Roman,serif" font-size="14.00" fill="#ffcc00">BlankSlate</text>
</a>
</g>
<!-- DataRegistry -->
<g id="node3" class="node"><title>DataRegistry</title>
<a xlink:href="DataRegistry/index.html" xlink:title="DataRegistry" target="_parent">
<polygon fill="none" stroke="blue" points="149,-109 43,-109 43,-73 149,-73 149,-109"/>
<text text-anchor="middle" x="96" y="-86.4" font-family="Times Roman,serif" font-size="14.00" fill="#ffcc00">DataRegistry</text>
</a>
</g>
<!-- BlankSlate&#45;&gt;DataRegistry -->
<g id="edge3" class="edge"><title>BlankSlate&#45;&gt;DataRegistry</title>
<path fill="none" stroke="gray" stroke-dasharray="5,2" d="M96,-134.57C96,-126.11 96,-117.06 96,-109.41"/>
<polygon fill="gray" stroke="gray" points="92.5001,-134.83 96,-144.83 99.5001,-134.83 92.5001,-134.83"/>
</g>
<!-- Errors -->
<g id="node4" class="node"><title>Errors</title>
<a xlink:href="Errors/index.html" xlink:title="Errors" target="_parent">
<polygon fill="none" stroke="gray" points="59,-37 1,-37 1,-1 59,-1 59,-37"/>
<text text-anchor="middle" x="30" y="-14.4" font-family="Times Roman,serif" font-size="14.00" fill="#ffcc00">Errors</text>
</a>
</g>
<!-- BlankSlate&#45;&gt;Errors -->
<g id="edge5" class="edge"><title>BlankSlate&#45;&gt;Errors</title>
<path fill="none" stroke="gray" stroke-dasharray="5,2" d="M58.082,-138.45C48.545,-130.29 39.474,-120.35 34,-109 22.994,-86.178 24.316,-56.199 26.77,-37.261"/>
<polygon fill="gray" stroke="gray" points="56.1358,-141.375 66.134,-144.88 60.5038,-135.905 56.1358,-141.375"/>
</g>
<!-- LoadManager -->
<g id="node5" class="node"><title>LoadManager</title>
<a xlink:href="LoadManager/index.html" xlink:title="LoadManager" target="_parent">
<polygon fill="none" stroke="gray" points="217,-37 107,-37 107,-1 217,-1 217,-37"/>
<text text-anchor="middle" x="162" y="-14.4" font-family="Times Roman,serif" font-size="14.00" fill="#ffcc00">LoadManager</text>
</a>
</g>
<!-- BlankSlate&#45;&gt;LoadManager -->
<g id="edge7" class="edge"><title>BlankSlate&#45;&gt;LoadManager</title>
<path fill="none" stroke="gray" stroke-dasharray="5,2" d="M133.92,-138.45C143.45,-130.29 152.53,-120.35 158,-109 169.01,-86.178 167.68,-56.199 165.23,-37.261"/>
<polygon fill="gray" stroke="gray" points="131.499,-135.904 125.87,-144.88 135.868,-141.374 131.499,-135.904"/>
</g>
<!-- DataRegistry&#45;&gt;Errors -->
<g id="edge9" class="edge"><title>DataRegistry&#45;&gt;Errors</title>
<path fill="none" stroke="gray" d="M72.505,-65.37C64.042,-56.137 54.666,-45.909 46.879,-37.413"/>
<polygon fill="gray" stroke="gray" points="70.0074,-67.825 79.345,-72.831 75.1672,-63.0946 70.0074,-67.825"/>
</g>
<!-- DataRegistry&#45;&gt;LoadManager -->
<g id="edge11" class="edge"><title>DataRegistry&#45;&gt;LoadManager</title>
<path fill="none" stroke="gray" d="M119.49,-65.37C127.96,-56.137 137.33,-45.909 145.12,-37.413"/>
<polygon fill="gray" stroke="gray" points="116.828,-63.0946 112.65,-72.831 121.988,-67.825 116.828,-63.0946"/>
</g>
</g>
</svg>
