<?xml version="1.0" encoding="UTF-8" standalone="no"?>
<!DOCTYPE svg PUBLIC "-//W3C//DTD SVG 1.1//EN"
 "http://www.w3.org/Graphics/SVG/1.1/DTD/svg11.dtd">
<!-- Generated by graphviz version 2.26.3 (20100126.1600)
 -->
<!-- Title: root Pages: 1 -->
<svg width="196pt" height="118pt"
 viewBox="0.00 0.00 196.00 118.00" xmlns="http://www.w3.org/2000/svg" xmlns:xlink="http://www.w3.org/1999/xlink">
<g id="graph1" class="graph" transform="scale(1 1) rotate(0) translate(4 114)">
<title>root</title>
<!-- BlankSlate -->
<g id="node2" class="node"><title>BlankSlate</title>
<a xlink:href="BlankSlate/index.html" xlink:title="BlankSlate" target="_parent">
<polygon fill="none" stroke="gray" points="126,-109 36,-109 36,-73 126,-73 126,-109"/>
<text text-anchor="middle" x="81" y="-86.4" font-family="Times Roman,serif" font-size="14.00" fill="#ffcc00">BlankSlate</text>
</a>
</g>
<!-- Errors -->
<g id="node3" class="node"><title>Errors</title>
<a xlink:href="Errors/index.html" xlink:title="Errors" target="_parent">
<polygon fill="none" stroke="gray" points="59,-37 1,-37 1,-1 59,-1 59,-37"/>
<text text-anchor="middle" x="30" y="-14.4" font-family="Times Roman,serif" font-size="14.00" fill="#ffcc00">Errors</text>
</a>
</g>
<!-- BlankSlate&#45;&gt;Errors -->
<g id="edge3" class="edge"><title>BlankSlate&#45;&gt;Errors</title>
<path fill="none" stroke="gray" stroke-dasharray="5,2" d="M62.255,-64.536C55.872,-55.525 48.88,-45.654 43.043,-37.413"/>
<polygon fill="gray" stroke="gray" points="59.4945,-66.6941 68.131,-72.831 65.2066,-62.6477 59.4945,-66.6941"/>
</g>
<!-- LoadManager -->
<g id="node4" class="node"><title>LoadManager</title>
<a xlink:href="LoadManager/index.html" xlink:title="LoadManager" target="_parent">
<polygon fill="none" stroke="gray" points="187,-37 77,-37 77,-1 187,-1 187,-37"/>
<text text-anchor="middle" x="132" y="-14.4" font-family="Times Roman,serif" font-size="14.00" fill="#ffcc00">LoadManager</text>
</a>
</g>
<!-- BlankSlate&#45;&gt;LoadManager -->
<g id="edge5" class="edge"><title>BlankSlate&#45;&gt;LoadManager</title>
<path fill="none" stroke="gray" stroke-dasharray="5,2" d="M99.745,-64.536C106.13,-55.525 113.12,-45.654 118.96,-37.413"/>
<polygon fill="gray" stroke="gray" points="96.7934,-62.6477 93.869,-72.831 102.505,-66.6941 96.7934,-62.6477"/>
</g>
</g>
</svg>
