<?xml version="1.0" encoding="UTF-8" standalone="no"?>
<!DOCTYPE svg PUBLIC "-//W3C//DTD SVG 1.1//EN"
 "http://www.w3.org/Graphics/SVG/1.1/DTD/svg11.dtd">
<!-- Generated by graphviz version 2.26.3 (20100126.1600)
 -->
<!-- Title: root Pages: 1 -->
<svg width="320pt" height="118pt"
 viewBox="0.00 0.00 320.00 118.00" xmlns="http://www.w3.org/2000/svg" xmlns:xlink="http://www.w3.org/1999/xlink">
<g id="graph1" class="graph" transform="scale(1 1) rotate(0) translate(4 114)">
<title>root</title>
<!-- BlankSlate -->
<g id="node2" class="node"><title>BlankSlate</title>
<a xlink:href="BlankSlate/index.html" xlink:title="BlankSlate" target="_parent">
<polygon fill="none" stroke="gray" points="199,-109 109,-109 109,-73 199,-73 199,-109"/>
<text text-anchor="middle" x="154" y="-86.4" font-family="Times Roman,serif" font-size="14.00" fill="#ffcc00">BlankSlate</text>
</a>
</g>
<!-- DataRegistry -->
<g id="node3" class="node"><title>DataRegistry</title>
<a xlink:href="DataRegistry/index.html" xlink:title="DataRegistry" target="_parent">
<polygon fill="none" stroke="gray" points="107,-37 1,-37 1,-1 107,-1 107,-37"/>
<text text-anchor="middle" x="54" y="-14.4" font-family="Times Roman,serif" font-size="14.00" fill="#ffcc00">DataRegistry</text>
</a>
</g>
<!-- BlankSlate&#45;&gt;DataRegistry -->
<g id="edge3" class="edge"><title>BlankSlate&#45;&gt;DataRegistry</title>
<path fill="none" stroke="gray" stroke-dasharray="5,2" d="M120.63,-66.974C107.12,-57.246 91.779,-46.201 79.226,-37.163"/>
<polygon fill="gray" stroke="gray" points="118.609,-69.8314 128.77,-72.831 122.697,-64.1494 118.609,-69.8314"/>
</g>
<!-- Errors -->
<g id="node4" class="node"><title>Errors</title>
<a xlink:href="Errors/index.html" xlink:title="Errors" target="_parent">
<polygon fill="none" stroke="gray" points="183,-37 125,-37 125,-1 183,-1 183,-37"/>
<text text-anchor="middle" x="154" y="-14.4" font-family="Times Roman,serif" font-size="14.00" fill="#ffcc00">Errors</text>
</a>
</g>
<!-- BlankSlate&#45;&gt;Errors -->
<g id="edge5" class="edge"><title>BlankSlate&#45;&gt;Errors</title>
<path fill="none" stroke="gray" stroke-dasharray="5,2" d="M154,-62.573C154,-54.108 154,-45.059 154,-37.413"/>
<polygon fill="gray" stroke="gray" points="150.5,-62.831 154,-72.831 157.5,-62.831 150.5,-62.831"/>
</g>
<!-- LoadManager -->
<g id="node5" class="node"><title>LoadManager</title>
<a xlink:href="LoadManager/index.html" xlink:title="LoadManager" target="_parent">
<polygon fill="none" stroke="gray" points="311,-37 201,-37 201,-1 311,-1 311,-37"/>
<text text-anchor="middle" x="256" y="-14.4" font-family="Times Roman,serif" font-size="14.00" fill="#ffcc00">LoadManager</text>
</a>
</g>
<!-- BlankSlate&#45;&gt;LoadManager -->
<g id="edge7" class="edge"><title>BlankSlate&#45;&gt;LoadManager</title>
<path fill="none" stroke="gray" stroke-dasharray="5,2" d="M188.04,-66.974C201.82,-57.246 217.47,-46.201 230.27,-37.163"/>
<polygon fill="gray" stroke="gray" points="185.893,-64.2056 179.74,-72.831 189.929,-69.925 185.893,-64.2056"/>
</g>
</g>
</svg>
