<?xml version="1.0" encoding="UTF-8" standalone="no"?>
<!DOCTYPE svg PUBLIC "-//W3C//DTD SVG 1.1//EN"
 "http://www.w3.org/Graphics/SVG/1.1/DTD/svg11.dtd">
<!-- Generated by graphviz version 2.26.3 (20100126.1600)
 -->
<!-- Title: root Pages: 1 -->
<svg width="336pt" height="262pt"
 viewBox="0.00 0.00 335.69 262.00" xmlns="http://www.w3.org/2000/svg" xmlns:xlink="http://www.w3.org/1999/xlink">
<g id="graph1" class="graph" transform="scale(1 1) rotate(0) translate(4 258)">
<title>root</title>
<!-- AltGUI -->
<g id="node2" class="node"><title>AltGUI</title>
<a xlink:href="AltGUI/index.html" xlink:title="AltGUI" target="_parent">
<polygon fill="none" stroke="gray" points="69,-181 1,-181 1,-145 69,-145 69,-181"/>
<text text-anchor="middle" x="35" y="-158.4" font-family="Times Roman,serif" font-size="14.00" fill="#ffcc00">AltGUI</text>
</a>
</g>
<!-- BlankSlate -->
<g id="node3" class="node"><title>BlankSlate</title>
<a xlink:href="BlankSlate/index.html" xlink:title="BlankSlate" target="_parent">
<polygon fill="none" stroke="gray" points="233,-253 133,-253 133,-217 233,-217 233,-253"/>
<text text-anchor="middle" x="183" y="-230.4" font-family="Times Roman,serif" font-size="14.00" fill="#ffcc00">BlankSlate</text>
</a>
</g>
<!-- BlankSlate&#45;&gt;AltGUI -->
<g id="edge3" class="edge"><title>BlankSlate&#45;&gt;AltGUI</title>
<path fill="none" stroke="gray" stroke-dasharray="5,2" d="M136.57,-212.41C114.79,-201.82 89.292,-189.41 69.291,-179.68"/>
<polygon fill="gray" stroke="gray" points="135.127,-215.6 145.65,-216.83 138.191,-209.306 135.127,-215.6"/>
</g>
<!-- DataRegistry -->
<g id="node4" class="node"><title>DataRegistry</title>
<a xlink:href="DataRegistry/index.html" xlink:title="DataRegistry" target="_parent">
<polygon fill="none" stroke="blue" points="241,-181 125,-181 125,-145 241,-145 241,-181"/>
<text text-anchor="middle" x="183" y="-158.4" font-family="Times Roman,serif" font-size="14.00" fill="#ffcc00">DataRegistry</text>
</a>
</g>
<!-- BlankSlate&#45;&gt;DataRegistry -->
<g id="edge5" class="edge"><title>BlankSlate&#45;&gt;DataRegistry</title>
<path fill="none" stroke="gray" stroke-dasharray="5,2" d="M183,-206.57C183,-198.11 183,-189.06 183,-181.41"/>
<polygon fill="gray" stroke="gray" points="179.5,-206.83 183,-216.83 186.5,-206.83 179.5,-206.83"/>
</g>
<!-- Errors -->
<g id="node5" class="node"><title>Errors</title>
<a xlink:href="Errors/index.html" xlink:title="Errors" target="_parent">
<polygon fill="none" stroke="gray" points="136,-109 70,-109 70,-73 136,-73 136,-109"/>
<text text-anchor="middle" x="103" y="-86.4" font-family="Times Roman,serif" font-size="14.00" fill="#ffcc00">Errors</text>
</a>
</g>
<!-- BlankSlate&#45;&gt;Errors -->
<g id="edge7" class="edge"><title>BlankSlate&#45;&gt;Errors</title>
<path fill="none" stroke="gray" stroke-dasharray="5,2" d="M142.85,-210.62C132.54,-202.46 122.54,-192.47 116,-181 103.26,-158.64 101.47,-128.27 101.86,-109.15"/>
<polygon fill="gray" stroke="gray" points="140.996,-213.603 151.11,-216.76 145.172,-207.985 140.996,-213.603"/>
</g>
<!-- LoadManager -->
<g id="node6" class="node"><title>LoadManager</title>
<a xlink:href="LoadManager/index.html" xlink:title="LoadManager" target="_parent">
<polygon fill="none" stroke="gray" points="312,-109 204,-109 204,-73 312,-73 312,-109"/>
<text text-anchor="middle" x="258" y="-86.4" font-family="Times Roman,serif" font-size="14.00" fill="#ffcc00">LoadManager</text>
</a>
</g>
<!-- BlankSlate&#45;&gt;LoadManager -->
<g id="edge9" class="edge"><title>BlankSlate&#45;&gt;LoadManager</title>
<path fill="none" stroke="gray" stroke-dasharray="5,2" d="M223.56,-210.84C233.87,-202.69 243.78,-192.65 250,-181 262.05,-158.45 262,-128.13 260.37,-109.07"/>
<polygon fill="gray" stroke="gray" points="221.23,-208.21 215.27,-216.97 225.392,-213.839 221.23,-208.21"/>
</g>
<!-- Panel -->
<g id="node7" class="node"><title>Panel</title>
<a xlink:href="Panel/index.html" xlink:title="Panel" target="_parent">
<polygon fill="none" stroke="gray" points="287,-37 229,-37 229,-1 287,-1 287,-37"/>
<text text-anchor="middle" x="258" y="-14.4" font-family="Times Roman,serif" font-size="14.00" fill="#ffcc00">Panel</text>
</a>
</g>
<!-- BlankSlate&#45;&gt;Panel -->
<g id="edge11" class="edge"><title>BlankSlate&#45;&gt;Panel</title>
<path fill="none" stroke="gray" stroke-dasharray="5,2" d="M227.26,-211.54C261.72,-190.21 306.11,-155.05 321,-109 325.92,-93.776 327.69,-87.536 321,-73 313.96,-57.687 300.19,-45.092 287.32,-35.929"/>
<polygon fill="gray" stroke="gray" points="225.059,-208.779 218.29,-216.93 228.664,-214.779 225.059,-208.779"/>
</g>
<!-- DataRegistry&#45;&gt;Errors -->
<g id="edge13" class="edge"><title>DataRegistry&#45;&gt;Errors</title>
<path fill="none" stroke="gray" d="M155.07,-137.87C144.57,-128.41 132.84,-117.86 123.18,-109.16"/>
<polygon fill="gray" stroke="gray" points="153.034,-140.746 162.81,-144.83 157.714,-135.541 153.034,-140.746"/>
</g>
<!-- DataRegistry&#45;&gt;LoadManager -->
<g id="edge15" class="edge"><title>DataRegistry&#45;&gt;LoadManager</title>
<path fill="none" stroke="gray" d="M209.18,-137.87C219.03,-128.41 230.02,-117.86 239.08,-109.16"/>
<polygon fill="gray" stroke="gray" points="206.72,-135.38 201.93,-144.83 211.568,-140.43 206.72,-135.38"/>
</g>
<!-- DataRegistry&#45;&gt;Panel -->
<g id="edge17" class="edge"><title>DataRegistry&#45;&gt;Panel</title>
<path fill="none" stroke="gray" d="M181.69,-134.74C182.01,-116.16 184.75,-91.876 195,-73 202.9,-58.441 216.42,-46.065 228.91,-36.849"/>
<polygon fill="gray" stroke="gray" points="178.191,-134.961 181.75,-144.94 185.191,-134.92 178.191,-134.961"/>
</g>
<!-- LoadManager&#45;&gt;Panel -->
<g id="edge19" class="edge"><title>LoadManager&#45;&gt;Panel</title>
<path fill="none" stroke="purple" stroke-dasharray="5,2" d="M258,-62.573C258,-54.108 258,-45.059 258,-37.413"/>
<polygon fill="purple" stroke="purple" points="254.5,-62.831 258,-72.831 261.5,-62.831 254.5,-62.831"/>
</g>
</g>
</svg>
