<?xml version="1.0" encoding="UTF-8" standalone="no"?>
<!DOCTYPE svg PUBLIC "-//W3C//DTD SVG 1.1//EN"
 "http://www.w3.org/Graphics/SVG/1.1/DTD/svg11.dtd">
<!-- Generated by graphviz version 2.26.3 (20100126.1600)
 -->
<!-- Title: root Pages: 1 -->
<svg width="260pt" height="262pt"
 viewBox="0.00 0.00 259.74 262.00" xmlns="http://www.w3.org/2000/svg" xmlns:xlink="http://www.w3.org/1999/xlink">
<g id="graph1" class="graph" transform="scale(1 1) rotate(0) translate(4 258)">
<title>root</title>
<!-- BlankSlate -->
<g id="node2" class="node"><title>BlankSlate</title>
<a xlink:href="BlankSlate/index.html" xlink:title="BlankSlate" target="_parent">
<polygon fill="none" stroke="gray" points="191,-253 101,-253 101,-217 191,-217 191,-253"/>
<text text-anchor="middle" x="146" y="-230.4" font-family="Times Roman,serif" font-size="14.00" fill="#ffcc00">BlankSlate</text>
</a>
</g>
<!-- DataRegistry -->
<g id="node3" class="node"><title>DataRegistry</title>
<a xlink:href="DataRegistry/index.html" xlink:title="DataRegistry" target="_parent">
<polygon fill="none" stroke="blue" points="159,-181 53,-181 53,-145 159,-145 159,-181"/>
<text text-anchor="middle" x="106" y="-158.4" font-family="Times Roman,serif" font-size="14.00" fill="#ffcc00">DataRegistry</text>
</a>
</g>
<!-- BlankSlate&#45;&gt;DataRegistry -->
<g id="edge3" class="edge"><title>BlankSlate&#45;&gt;DataRegistry</title>
<path fill="none" stroke="gray" stroke-dasharray="5,2" d="M130.99,-207.98C126.07,-199.12 120.71,-189.48 116.23,-181.41"/>
<polygon fill="gray" stroke="gray" points="127.992,-209.79 135.91,-216.83 134.11,-206.389 127.992,-209.79"/>
</g>
<!-- Errors -->
<g id="node4" class="node"><title>Errors</title>
<a xlink:href="Errors/index.html" xlink:title="Errors" target="_parent">
<polygon fill="none" stroke="gray" points="59,-109 1,-109 1,-73 59,-73 59,-109"/>
<text text-anchor="middle" x="30" y="-86.4" font-family="Times Roman,serif" font-size="14.00" fill="#ffcc00">Errors</text>
</a>
</g>
<!-- BlankSlate&#45;&gt;Errors -->
<g id="edge5" class="edge"><title>BlankSlate&#45;&gt;Errors</title>
<path fill="none" stroke="gray" stroke-dasharray="5,2" d="M91.744,-217.58C73.911,-209.24 55.684,-197.4 44,-181 28.951,-159.88 27.438,-128.88 28.294,-109.33"/>
<polygon fill="gray" stroke="gray" points="90.4356,-220.828 101,-221.63 93.2416,-214.415 90.4356,-220.828"/>
</g>
<!-- LoadManager -->
<g id="node5" class="node"><title>LoadManager</title>
<a xlink:href="LoadManager/index.html" xlink:title="LoadManager" target="_parent">
<polygon fill="none" stroke="gray" points="236,-109 126,-109 126,-73 236,-73 236,-109"/>
<text text-anchor="middle" x="181" y="-86.4" font-family="Times Roman,serif" font-size="14.00" fill="#ffcc00">LoadManager</text>
</a>
</g>
<!-- BlankSlate&#45;&gt;LoadManager -->
<g id="edge7" class="edge"><title>BlankSlate&#45;&gt;LoadManager</title>
<path fill="none" stroke="gray" stroke-dasharray="5,2" d="M158.68,-207.58C162.14,-199.19 165.6,-189.85 168,-181 174.62,-156.62 178.04,-127.56 179.68,-109.19"/>
<polygon fill="gray" stroke="gray" points="155.411,-206.321 154.67,-216.89 161.84,-209.09 155.411,-206.321"/>
</g>
<!-- Panel -->
<g id="node6" class="node"><title>Panel</title>
<a xlink:href="Panel/index.html" xlink:title="Panel" target="_parent">
<polygon fill="none" stroke="gray" points="208,-37 154,-37 154,-1 208,-1 208,-37"/>
<text text-anchor="middle" x="181" y="-14.4" font-family="Times Roman,serif" font-size="14.00" fill="#ffcc00">Panel</text>
</a>
</g>
<!-- BlankSlate&#45;&gt;Panel -->
<g id="edge9" class="edge"><title>BlankSlate&#45;&gt;Panel</title>
<path fill="none" stroke="gray" stroke-dasharray="5,2" d="M174.66,-209.53C198.66,-186.13 231.13,-149.09 245,-109 250.23,-93.879 251.74,-87.51 245,-73 237.34,-56.52 221.9,-43.259 208.11,-34.003"/>
<polygon fill="gray" stroke="gray" points="172.034,-207.197 167.21,-216.63 176.864,-212.265 172.034,-207.197"/>
</g>
<!-- DataRegistry&#45;&gt;Errors -->
<g id="edge11" class="edge"><title>DataRegistry&#45;&gt;Errors</title>
<path fill="none" stroke="gray" d="M79.471,-137.87C69.493,-128.41 58.352,-117.86 49.172,-109.16"/>
<polygon fill="gray" stroke="gray" points="77.1541,-140.496 86.822,-144.83 81.9668,-135.413 77.1541,-140.496"/>
</g>
<!-- DataRegistry&#45;&gt;LoadManager -->
<g id="edge13" class="edge"><title>DataRegistry&#45;&gt;LoadManager</title>
<path fill="none" stroke="gray" d="M132.18,-137.87C142.03,-128.41 153.02,-117.86 162.08,-109.16"/>
<polygon fill="gray" stroke="gray" points="129.72,-135.38 124.93,-144.83 134.568,-140.43 129.72,-135.38"/>
</g>
<!-- DataRegistry&#45;&gt;Panel -->
<g id="edge15" class="edge"><title>DataRegistry&#45;&gt;Panel</title>
<path fill="none" stroke="gray" d="M104.27,-134.73C104.34,-116.15 106.8,-91.866 117,-73 125.44,-57.399 140.37,-44.404 153.69,-35.074"/>
<polygon fill="gray" stroke="gray" points="100.775,-135.001 104.47,-144.93 107.773,-134.863 100.775,-135.001"/>
</g>
<!-- LoadManager&#45;&gt;Panel -->
<g id="edge17" class="edge"><title>LoadManager&#45;&gt;Panel</title>
<path fill="none" stroke="purple" stroke-dasharray="5,2" d="M181,-62.573C181,-54.108 181,-45.059 181,-37.413"/>
<polygon fill="purple" stroke="purple" points="177.5,-62.831 181,-72.831 184.5,-62.831 177.5,-62.831"/>
</g>
</g>
</svg>
