<?xml version="1.0" encoding="UTF-8" standalone="no"?>
<!DOCTYPE svg PUBLIC "-//W3C//DTD SVG 1.1//EN"
 "http://www.w3.org/Graphics/SVG/1.1/DTD/svg11.dtd">
<!-- Generated by graphviz version 2.26.3 (20100126.1600)
 -->
<!-- Title: root Pages: 1 -->
<svg width="411pt" height="262pt"
 viewBox="0.00 0.00 411.00 262.00" xmlns="http://www.w3.org/2000/svg" xmlns:xlink="http://www.w3.org/1999/xlink">
<g id="graph1" class="graph" transform="scale(1 1) rotate(0) translate(4 258)">
<title>root</title>
<!-- AltGUI -->
<g id="node2" class="node"><title>AltGUI</title>
<a xlink:href="AltGUI/index.html" xlink:title="AltGUI" target="_parent">
<polygon fill="none" stroke="gray" points="69,-37 1,-37 1,-1 69,-1 69,-37"/>
<text text-anchor="middle" x="35" y="-14.4" font-family="Times Roman,serif" font-size="14.00" fill="#ffcc00">AltGUI</text>
</a>
</g>
<!-- BlankSlate -->
<g id="node3" class="node"><title>BlankSlate</title>
<a xlink:href="BlankSlate/index.html" xlink:title="BlankSlate" target="_parent">
<polygon fill="none" stroke="gray" points="233,-253 133,-253 133,-217 233,-217 233,-253"/>
<text text-anchor="middle" x="183" y="-230.4" font-family="Times Roman,serif" font-size="14.00" fill="#ffcc00">BlankSlate</text>
</a>
</g>
<!-- BlankSlate&#45;&gt;AltGUI -->
<g id="edge3" class="edge"><title>BlankSlate&#45;&gt;AltGUI</title>
<a xlink:title="Optionally requires">
<path fill="none" stroke="gray" stroke-dasharray="5,2" d="M123.1,-219.32C100.23,-210.95 75.288,-198.64 57,-181 20.777,-146.07 17.509,-123.02 23,-73 24.32,-60.972 27.248,-47.702 29.881,-37.327"/>
<polygon fill="gray" stroke="gray" points="122.155,-222.697 132.75,-222.67 124.451,-216.084 122.155,-222.697"/>
</a>
</g>
<!-- DataRegistry -->
<g id="node4" class="node"><title>DataRegistry</title>
<a xlink:href="DataRegistry/index.html" xlink:title="DataRegistry" target="_parent">
<polygon fill="none" stroke="blue" points="198,-181 82,-181 82,-145 198,-145 198,-181"/>
<text text-anchor="middle" x="140" y="-158.4" font-family="Times Roman,serif" font-size="14.00" fill="#ffcc00">DataRegistry</text>
</a>
</g>
<!-- BlankSlate&#45;&gt;DataRegistry -->
<g id="edge5" class="edge"><title>BlankSlate&#45;&gt;DataRegistry</title>
<a xlink:title="Optionally requires">
<path fill="none" stroke="gray" stroke-dasharray="5,2" d="M166.86,-207.98C161.57,-199.12 155.82,-189.48 151,-181.41"/>
<polygon fill="gray" stroke="gray" points="164.015,-210.042 172.15,-216.83 170.023,-206.451 164.015,-210.042"/>
</a>
</g>
<!-- Errors -->
<g id="node5" class="node"><title>Errors</title>
<a xlink:href="Errors/index.html" xlink:title="Errors" target="_parent">
<polygon fill="none" stroke="gray" points="98,-109 32,-109 32,-73 98,-73 98,-109"/>
<text text-anchor="middle" x="65" y="-86.4" font-family="Times Roman,serif" font-size="14.00" fill="#ffcc00">Errors</text>
</a>
</g>
<!-- BlankSlate&#45;&gt;Errors -->
<g id="edge7" class="edge"><title>BlankSlate&#45;&gt;Errors</title>
<a xlink:title="Optionally requires">
<path fill="none" stroke="gray" stroke-dasharray="5,2" d="M123.47,-218.74C104.34,-210.54 85.002,-198.48 73,-181 58.441,-159.79 59.253,-128.82 61.716,-109.3"/>
<polygon fill="gray" stroke="gray" points="122.235,-222.015 132.82,-222.47 124.829,-215.514 122.235,-222.015"/>
</a>
</g>
<!-- LoadManager -->
<g id="node6" class="node"><title>LoadManager</title>
<a xlink:href="LoadManager/index.html" xlink:title="LoadManager" target="_parent">
<polygon fill="none" stroke="gray" points="262,-109 154,-109 154,-73 262,-73 262,-109"/>
<text text-anchor="middle" x="208" y="-86.4" font-family="Times Roman,serif" font-size="14.00" fill="#ffcc00">LoadManager</text>
</a>
</g>
<!-- BlankSlate&#45;&gt;LoadManager -->
<g id="edge9" class="edge"><title>BlankSlate&#45;&gt;LoadManager</title>
<a xlink:title="Optionally requires">
<path fill="none" stroke="gray" stroke-dasharray="5,2" d="M197.82,-207.47C201.55,-199.19 205.05,-189.93 207,-181 212.33,-156.57 211.39,-127.52 209.93,-109.17"/>
<polygon fill="gray" stroke="gray" points="194.585,-206.122 193.4,-216.65 200.892,-209.158 194.585,-206.122"/>
</a>
</g>
<!-- Panel -->
<g id="node7" class="node"><title>Panel</title>
<a xlink:href="Panel/index.html" xlink:title="Panel" target="_parent">
<polygon fill="none" stroke="gray" points="237,-37 179,-37 179,-1 237,-1 237,-37"/>
<text text-anchor="middle" x="208" y="-14.4" font-family="Times Roman,serif" font-size="14.00" fill="#ffcc00">Panel</text>
</a>
</g>
<!-- BlankSlate&#45;&gt;Panel -->
<g id="edge11" class="edge"><title>BlankSlate&#45;&gt;Panel</title>
<a xlink:title="Optionally requires">
<path fill="none" stroke="gray" stroke-dasharray="5,2" d="M208.17,-209.46C229.66,-185.71 258.93,-148.18 271,-109 275.71,-93.709 277.69,-87.536 271,-73 263.96,-57.687 250.19,-45.092 237.32,-35.929"/>
<polygon fill="gray" stroke="gray" points="205.443,-207.253 201.22,-216.97 210.581,-212.008 205.443,-207.253"/>
</a>
</g>
<!-- Settings -->
<g id="node8" class="node"><title>Settings</title>
<a xlink:href="Settings/index.html" xlink:title="Settings" target="_parent">
<polygon fill="none" stroke="gray" points="402,-181 318,-181 318,-145 402,-145 402,-181"/>
<text text-anchor="middle" x="360" y="-158.4" font-family="Times Roman,serif" font-size="14.00" fill="#ffcc00">Settings</text>
</a>
</g>
<!-- BlankSlate&#45;&gt;Settings -->
<g id="edge13" class="edge"><title>BlankSlate&#45;&gt;Settings</title>
<a xlink:title="Optionally requires">
<path fill="none" stroke="gray" stroke-dasharray="5,2" d="M236.99,-213.04C262.94,-202.48 293.58,-190.02 317.79,-180.17"/>
<polygon fill="gray" stroke="gray" points="235.608,-209.824 227.66,-216.83 238.242,-216.309 235.608,-209.824"/>
</a>
</g>
<!-- DataRegistry&#45;&gt;Errors -->
<g id="edge15" class="edge"><title>DataRegistry&#45;&gt;Errors</title>
<a xlink:title="Requires">
<path fill="none" stroke="gray" d="M113.82,-137.87C103.97,-128.41 92.979,-117.86 83.92,-109.16"/>
<polygon fill="gray" stroke="gray" points="111.432,-140.43 121.07,-144.83 116.28,-135.38 111.432,-140.43"/>
</a>
</g>
<!-- DataRegistry&#45;&gt;LoadManager -->
<g id="edge17" class="edge"><title>DataRegistry&#45;&gt;LoadManager</title>
<a xlink:title="Requires">
<path fill="none" stroke="gray" d="M164.21,-137.37C172.93,-128.14 182.59,-117.91 190.61,-109.41"/>
<polygon fill="gray" stroke="gray" points="161.485,-135.158 157.16,-144.83 166.572,-139.966 161.485,-135.158"/>
</a>
</g>
<!-- DataRegistry&#45;&gt;Panel -->
<g id="edge19" class="edge"><title>DataRegistry&#45;&gt;Panel</title>
<a xlink:title="Requires">
<path fill="none" stroke="gray" d="M136.04,-134.56C134.76,-116.08 135.61,-92 145,-73 152.4,-58.018 166.03,-45.526 178.72,-36.344"/>
<polygon fill="gray" stroke="gray" points="132.572,-135.07 136.99,-144.7 139.542,-134.417 132.572,-135.07"/>
</a>
</g>
<!-- Errors&#45;&gt;AltGUI -->
<g id="edge21" class="edge"><title>Errors&#45;&gt;AltGUI</title>
<a xlink:title="Optionally requires">
<path fill="none" stroke="gray" stroke-dasharray="5,2" d="M53.507,-63.417C49.881,-54.713 45.964,-45.314 42.672,-37.413"/>
<polygon fill="gray" stroke="gray" points="50.3527,-64.9467 57.43,-72.831 56.8141,-62.2541 50.3527,-64.9467"/>
</a>
</g>
<!-- LoadManager&#45;&gt;Panel -->
<g id="edge23" class="edge"><title>LoadManager&#45;&gt;Panel</title>
<a xlink:title="Loaded by">
<path fill="none" stroke="purple" stroke-dasharray="5,2" d="M208,-62.573C208,-54.108 208,-45.059 208,-37.413"/>
<polygon fill="purple" stroke="purple" points="204.5,-62.831 208,-72.831 211.5,-62.831 204.5,-62.831"/>
</a>
</g>
</g>
</svg>
