<?xml version="1.0" encoding="UTF-8" standalone="no"?>
<!DOCTYPE svg PUBLIC "-//W3C//DTD SVG 1.1//EN"
 "http://www.w3.org/Graphics/SVG/1.1/DTD/svg11.dtd">
<!-- Generated by graphviz version 2.26.3 (20100126.1600)
 -->
<!-- Title: root Pages: 1 -->
<svg width="443pt" height="262pt"
 viewBox="0.00 0.00 443.00 262.00" xmlns="http://www.w3.org/2000/svg" xmlns:xlink="http://www.w3.org/1999/xlink">
<g id="graph1" class="graph" transform="scale(1 1) rotate(0) translate(4 258)">
<title>root</title>
<!-- AltGUI -->
<g id="node2" class="node"><title>AltGUI</title>
<a xlink:href="AltGUI/index.html" xlink:title="AltGUI" target="_parent">
<polygon fill="none" stroke="gray" points="69,-181 1,-181 1,-145 69,-145 69,-181"/>
<text text-anchor="middle" x="35" y="-158.4" font-family="Times Roman,serif" font-size="14.00" fill="#ffcc00">AltGUI</text>
</a>
</g>
<!-- BlankSlate -->
<g id="node3" class="node"><title>BlankSlate</title>
<a xlink:href="BlankSlate/index.html" xlink:title="BlankSlate" target="_parent">
<polygon fill="none" stroke="gray" points="276,-253 176,-253 176,-217 276,-217 276,-253"/>
<text text-anchor="middle" x="226" y="-230.4" font-family="Times Roman,serif" font-size="14.00" fill="#ffcc00">BlankSlate</text>
</a>
</g>
<!-- BlankSlate&#45;&gt;AltGUI -->
<g id="edge3" class="edge"><title>BlankSlate&#45;&gt;AltGUI</title>
<a xlink:title="Optionally requires">
<path fill="none" stroke="gray" stroke-dasharray="5,2" d="M168.42,-213.29C135.98,-201.07 96.573,-186.21 69.03,-175.83"/>
<polygon fill="gray" stroke="gray" points="167.208,-216.574 177.8,-216.83 169.68,-210.024 167.208,-216.574"/>
</a>
</g>
<!-- DataRegistry -->
<g id="node4" class="node"><title>DataRegistry</title>
<a xlink:href="DataRegistry/index.html" xlink:title="DataRegistry" target="_parent">
<polygon fill="none" stroke="blue" points="241,-181 125,-181 125,-145 241,-145 241,-181"/>
<text text-anchor="middle" x="183" y="-158.4" font-family="Times Roman,serif" font-size="14.00" fill="#ffcc00">DataRegistry</text>
</a>
</g>
<!-- BlankSlate&#45;&gt;DataRegistry -->
<g id="edge5" class="edge"><title>BlankSlate&#45;&gt;DataRegistry</title>
<a xlink:title="Optionally requires">
<path fill="none" stroke="gray" stroke-dasharray="5,2" d="M209.86,-207.98C204.57,-199.12 198.82,-189.48 194,-181.41"/>
<polygon fill="gray" stroke="gray" points="207.015,-210.042 215.15,-216.83 213.023,-206.451 207.015,-210.042"/>
</a>
</g>
<!-- Errors -->
<g id="node5" class="node"><title>Errors</title>
<a xlink:href="Errors/index.html" xlink:title="Errors" target="_parent">
<polygon fill="none" stroke="gray" points="130,-109 64,-109 64,-73 130,-73 130,-109"/>
<text text-anchor="middle" x="97" y="-86.4" font-family="Times Roman,serif" font-size="14.00" fill="#ffcc00">Errors</text>
</a>
</g>
<!-- BlankSlate&#45;&gt;Errors -->
<g id="edge7" class="edge"><title>BlankSlate&#45;&gt;Errors</title>
<a xlink:title="Optionally requires">
<path fill="none" stroke="gray" stroke-dasharray="5,2" d="M166.38,-217.36C147.74,-209.11 128.74,-197.37 116,-181 99.819,-160.2 96.603,-128.83 96.362,-109.15"/>
<polygon fill="gray" stroke="gray" points="165.183,-220.653 175.76,-221.26 167.87,-214.189 165.183,-220.653"/>
</a>
</g>
<!-- LoadManager -->
<g id="node6" class="node"><title>LoadManager</title>
<a xlink:href="LoadManager/index.html" xlink:title="LoadManager" target="_parent">
<polygon fill="none" stroke="gray" points="294,-109 186,-109 186,-73 294,-73 294,-109"/>
<text text-anchor="middle" x="240" y="-86.4" font-family="Times Roman,serif" font-size="14.00" fill="#ffcc00">LoadManager</text>
</a>
</g>
<!-- BlankSlate&#45;&gt;LoadManager -->
<g id="edge9" class="edge"><title>BlankSlate&#45;&gt;LoadManager</title>
<a xlink:title="Optionally requires">
<path fill="none" stroke="gray" stroke-dasharray="5,2" d="M240.88,-207.48C244.62,-199.21 248.1,-189.94 250,-181 255.22,-156.39 250.01,-127.39 245.37,-109.1"/>
<polygon fill="gray" stroke="gray" points="237.645,-206.132 236.46,-216.66 243.952,-209.168 237.645,-206.132"/>
</a>
</g>
<!-- Panel -->
<g id="node7" class="node"><title>Panel</title>
<a xlink:href="Panel/index.html" xlink:title="Panel" target="_parent">
<polygon fill="none" stroke="gray" points="269,-37 211,-37 211,-1 269,-1 269,-37"/>
<text text-anchor="middle" x="240" y="-14.4" font-family="Times Roman,serif" font-size="14.00" fill="#ffcc00">Panel</text>
</a>
</g>
<!-- BlankSlate&#45;&gt;Panel -->
<g id="edge11" class="edge"><title>BlankSlate&#45;&gt;Panel</title>
<a xlink:title="Optionally requires">
<path fill="none" stroke="gray" stroke-dasharray="5,2" d="M248.8,-208.7C267.92,-184.63 293.57,-147.06 303,-109 306.85,-93.469 309.69,-87.536 303,-73 295.96,-57.687 282.19,-45.092 269.32,-35.929"/>
<polygon fill="gray" stroke="gray" points="245.942,-206.666 242.34,-216.63 251.369,-211.087 245.942,-206.666"/>
</a>
</g>
<!-- Settings -->
<g id="node8" class="node"><title>Settings</title>
<a xlink:href="Settings/index.html" xlink:title="Settings" target="_parent">
<polygon fill="none" stroke="gray" points="434,-181 350,-181 350,-145 434,-145 434,-181"/>
<text text-anchor="middle" x="392" y="-158.4" font-family="Times Roman,serif" font-size="14.00" fill="#ffcc00">Settings</text>
</a>
</g>
<!-- BlankSlate&#45;&gt;Settings -->
<g id="edge13" class="edge"><title>BlankSlate&#45;&gt;Settings</title>
<a xlink:title="Optionally requires">
<path fill="none" stroke="gray" stroke-dasharray="5,2" d="M277.34,-212.73C300.81,-202.55 328.26,-190.65 350.41,-181.04"/>
<polygon fill="gray" stroke="gray" points="275.671,-209.639 267.89,-216.83 278.457,-216.061 275.671,-209.639"/>
</a>
</g>
<!-- DataRegistry&#45;&gt;Errors -->
<g id="edge15" class="edge"><title>DataRegistry&#45;&gt;Errors</title>
<a xlink:title="Requires">
<path fill="none" stroke="gray" d="M153.31,-138.14C141.94,-128.62 129.18,-117.94 118.69,-109.16"/>
<polygon fill="gray" stroke="gray" points="151.386,-141.094 161.3,-144.83 155.88,-135.727 151.386,-141.094"/>
</a>
</g>
<!-- DataRegistry&#45;&gt;LoadManager -->
<g id="edge17" class="edge"><title>DataRegistry&#45;&gt;LoadManager</title>
<a xlink:title="Requires">
<path fill="none" stroke="gray" d="M203.73,-136.81C210.92,-127.73 218.83,-117.74 225.42,-109.41"/>
<polygon fill="gray" stroke="gray" points="200.844,-134.817 197.38,-144.83 206.332,-139.163 200.844,-134.817"/>
</a>
</g>
<!-- DataRegistry&#45;&gt;Panel -->
<g id="edge19" class="edge"><title>DataRegistry&#45;&gt;Panel</title>
<a xlink:title="Requires">
<path fill="none" stroke="gray" d="M174.42,-134.99C170.35,-116.56 168.1,-92.357 177,-73 184.04,-57.687 197.81,-45.092 210.68,-35.929"/>
<polygon fill="gray" stroke="gray" points="171.059,-135.977 176.88,-144.83 177.85,-134.28 171.059,-135.977"/>
</a>
</g>
<!-- LoadManager&#45;&gt;Panel -->
<g id="edge21" class="edge"><title>LoadManager&#45;&gt;Panel</title>
<a xlink:title="Loaded by">
<path fill="none" stroke="purple" stroke-dasharray="5,2" d="M240,-62.573C240,-54.108 240,-45.059 240,-37.413"/>
<polygon fill="purple" stroke="purple" points="236.5,-62.831 240,-72.831 243.5,-62.831 236.5,-62.831"/>
</a>
</g>
</g>
</svg>
