<?xml version="1.0" encoding="UTF-8" standalone="no"?>
<!DOCTYPE svg PUBLIC "-//W3C//DTD SVG 1.1//EN"
 "http://www.w3.org/Graphics/SVG/1.1/DTD/svg11.dtd">
<!-- Generated by graphviz version 2.26.3 (20100126.1600)
 -->
<!-- Title: root Pages: 1 -->
<svg width="287pt" height="262pt"
 viewBox="0.00 0.00 286.69 262.00" xmlns="http://www.w3.org/2000/svg" xmlns:xlink="http://www.w3.org/1999/xlink">
<g id="graph1" class="graph" transform="scale(1 1) rotate(0) translate(4 258)">
<title>root</title>
<!-- AltGUI -->
<g id="node2" class="node"><title>AltGUI</title>
<a xlink:href="AltGUI/index.html" xlink:title="AltGUI" target="_parent">
<polygon fill="none" stroke="gray" points="69,-37 1,-37 1,-1 69,-1 69,-37"/>
<text text-anchor="middle" x="35" y="-14.4" font-family="Times Roman,serif" font-size="14.00" fill="#ffcc00">AltGUI</text>
</a>
</g>
<!-- BlankSlate -->
<g id="node3" class="node"><title>BlankSlate</title>
<a xlink:href="BlankSlate/index.html" xlink:title="BlankSlate" target="_parent">
<polygon fill="none" stroke="gray" points="178,-253 78,-253 78,-217 178,-217 178,-253"/>
<text text-anchor="middle" x="128" y="-230.4" font-family="Times Roman,serif" font-size="14.00" fill="#ffcc00">BlankSlate</text>
</a>
</g>
<!-- BlankSlate&#45;&gt;AltGUI -->
<g id="edge3" class="edge"><title>BlankSlate&#45;&gt;AltGUI</title>
<a xlink:title="Optionally requires">
<path fill="none" stroke="gray" stroke-dasharray="5,2" d="M84.043,-211.35C71.732,-203.06 59.213,-192.82 50,-181 19.586,-141.97 17.601,-122.18 23,-73 24.32,-60.972 27.248,-47.702 29.881,-37.327"/>
<polygon fill="gray" stroke="gray" points="82.1826,-214.315 92.489,-216.77 85.9632,-208.423 82.1826,-214.315"/>
</a>
</g>
<!-- DataRegistry -->
<g id="node4" class="node"><title>DataRegistry</title>
<a xlink:href="DataRegistry/index.html" xlink:title="DataRegistry" target="_parent">
<polygon fill="none" stroke="blue" points="186,-181 70,-181 70,-145 186,-145 186,-181"/>
<text text-anchor="middle" x="128" y="-158.4" font-family="Times Roman,serif" font-size="14.00" fill="#ffcc00">DataRegistry</text>
</a>
</g>
<!-- BlankSlate&#45;&gt;DataRegistry -->
<g id="edge5" class="edge"><title>BlankSlate&#45;&gt;DataRegistry</title>
<a xlink:title="Optionally requires">
<path fill="none" stroke="gray" stroke-dasharray="5,2" d="M128,-206.57C128,-198.11 128,-189.06 128,-181.41"/>
<polygon fill="gray" stroke="gray" points="124.5,-206.83 128,-216.83 131.5,-206.83 124.5,-206.83"/>
</a>
</g>
<!-- Errors -->
<g id="node5" class="node"><title>Errors</title>
<a xlink:href="Errors/index.html" xlink:title="Errors" target="_parent">
<polygon fill="none" stroke="gray" points="98,-109 32,-109 32,-73 98,-73 98,-109"/>
<text text-anchor="middle" x="65" y="-86.4" font-family="Times Roman,serif" font-size="14.00" fill="#ffcc00">Errors</text>
</a>
</g>
<!-- BlankSlate&#45;&gt;Errors -->
<g id="edge7" class="edge"><title>BlankSlate&#45;&gt;Errors</title>
<a xlink:title="Optionally requires">
<path fill="none" stroke="gray" stroke-dasharray="5,2" d="M86.217,-210.74C76.099,-202.67 66.596,-192.7 61,-181 50.066,-158.14 54.572,-128.17 59.355,-109.25"/>
<polygon fill="gray" stroke="gray" points="84.2832,-213.663 94.4,-216.81 88.4536,-208.041 84.2832,-213.663"/>
</a>
</g>
<!-- LoadManager -->
<g id="node6" class="node"><title>LoadManager</title>
<a xlink:href="LoadManager/index.html" xlink:title="LoadManager" target="_parent">
<polygon fill="none" stroke="gray" points="263,-109 155,-109 155,-73 263,-73 263,-109"/>
<text text-anchor="middle" x="209" y="-86.4" font-family="Times Roman,serif" font-size="14.00" fill="#ffcc00">LoadManager</text>
</a>
</g>
<!-- BlankSlate&#45;&gt;LoadManager -->
<g id="edge9" class="edge"><title>BlankSlate&#45;&gt;LoadManager</title>
<a xlink:title="Optionally requires">
<path fill="none" stroke="gray" stroke-dasharray="5,2" d="M167.8,-210.79C178.19,-202.59 188.34,-192.54 195,-181 207.88,-158.68 210.04,-128.29 209.9,-109.16"/>
<polygon fill="gray" stroke="gray" points="165.418,-208.199 159.46,-216.96 169.581,-213.826 165.418,-208.199"/>
</a>
</g>
<!-- Panel -->
<g id="node7" class="node"><title>Panel</title>
<a xlink:href="Panel/index.html" xlink:title="Panel" target="_parent">
<polygon fill="none" stroke="gray" points="238,-37 180,-37 180,-1 238,-1 238,-37"/>
<text text-anchor="middle" x="209" y="-14.4" font-family="Times Roman,serif" font-size="14.00" fill="#ffcc00">Panel</text>
</a>
</g>
<!-- BlankSlate&#45;&gt;Panel -->
<g id="edge11" class="edge"><title>BlankSlate&#45;&gt;Panel</title>
<a xlink:title="Optionally requires">
<path fill="none" stroke="gray" stroke-dasharray="5,2" d="M173.9,-211.78C209.53,-190.65 255.55,-155.64 272,-109 277.32,-93.911 278.69,-87.536 272,-73 264.96,-57.687 251.19,-45.092 238.32,-35.929"/>
<polygon fill="gray" stroke="gray" points="172.012,-208.829 165.09,-216.85 175.503,-214.896 172.012,-208.829"/>
</a>
</g>
<!-- DataRegistry&#45;&gt;Errors -->
<g id="edge13" class="edge"><title>DataRegistry&#45;&gt;Errors</title>
<a xlink:title="Requires">
<path fill="none" stroke="gray" d="M105.33,-137.09C97.316,-127.93 88.471,-117.82 81.112,-109.41"/>
<polygon fill="gray" stroke="gray" points="102.882,-139.607 112.1,-144.83 108.151,-134.999 102.882,-139.607"/>
</a>
</g>
<!-- DataRegistry&#45;&gt;LoadManager -->
<g id="edge15" class="edge"><title>DataRegistry&#45;&gt;LoadManager</title>
<a xlink:title="Requires">
<path fill="none" stroke="gray" d="M155.96,-138.14C166.68,-128.62 178.69,-117.94 188.57,-109.16"/>
<polygon fill="gray" stroke="gray" points="153.585,-135.568 148.44,-144.83 158.238,-140.798 153.585,-135.568"/>
</a>
</g>
<!-- DataRegistry&#45;&gt;Panel -->
<g id="edge17" class="edge"><title>DataRegistry&#45;&gt;Panel</title>
<a xlink:title="Requires">
<path fill="none" stroke="gray" d="M128.93,-134.65C130.64,-116.02 135.03,-91.736 146,-73 154.37,-58.705 167.94,-46.356 180.34,-37.089"/>
<polygon fill="gray" stroke="gray" points="125.421,-134.646 128.2,-144.87 132.404,-135.145 125.421,-134.646"/>
</a>
</g>
<!-- Errors&#45;&gt;AltGUI -->
<g id="edge19" class="edge"><title>Errors&#45;&gt;AltGUI</title>
<a xlink:title="Optionally requires">
<path fill="none" stroke="gray" stroke-dasharray="5,2" d="M53.507,-63.417C49.881,-54.713 45.964,-45.314 42.672,-37.413"/>
<polygon fill="gray" stroke="gray" points="50.3527,-64.9467 57.43,-72.831 56.8141,-62.2541 50.3527,-64.9467"/>
</a>
</g>
<!-- LoadManager&#45;&gt;Panel -->
<g id="edge21" class="edge"><title>LoadManager&#45;&gt;Panel</title>
<a xlink:title="Loaded by">
<path fill="none" stroke="purple" stroke-dasharray="5,2" d="M209,-62.573C209,-54.108 209,-45.059 209,-37.413"/>
<polygon fill="purple" stroke="purple" points="205.5,-62.831 209,-72.831 212.5,-62.831 205.5,-62.831"/>
</a>
</g>
</g>
</svg>
