<?xml version="1.0" encoding="UTF-8" standalone="no"?>
<!DOCTYPE svg PUBLIC "-//W3C//DTD SVG 1.1//EN"
 "http://www.w3.org/Graphics/SVG/1.1/DTD/svg11.dtd">
<!-- Generated by graphviz version 2.26.3 (20100126.1600)
 -->
<!-- Title: root Pages: 1 -->
<svg width="282pt" height="190pt"
 viewBox="0.00 0.00 282.00 190.00" xmlns="http://www.w3.org/2000/svg" xmlns:xlink="http://www.w3.org/1999/xlink">
<g id="graph1" class="graph" transform="scale(1 1) rotate(0) translate(4 186)">
<title>root</title>
<!-- BlankSlate -->
<g id="node2" class="node"><title>BlankSlate</title>
<a xlink:href="BlankSlate/index.html" xlink:title="BlankSlate" target="_parent">
<polygon fill="none" stroke="gray" points="180,-181 90,-181 90,-145 180,-145 180,-181"/>
<text text-anchor="middle" x="135" y="-158.4" font-family="Times Roman,serif" font-size="14.00" fill="#ffcc00">BlankSlate</text>
</a>
</g>
<!-- DataRegistry -->
<g id="node3" class="node"><title>DataRegistry</title>
<a xlink:href="DataRegistry/index.html" xlink:title="DataRegistry" target="_parent">
<polygon fill="none" stroke="blue" points="107,-109 1,-109 1,-73 107,-73 107,-109"/>
<text text-anchor="middle" x="54" y="-86.4" font-family="Times Roman,serif" font-size="14.00" fill="#ffcc00">DataRegistry</text>
</a>
</g>
<!-- BlankSlate&#45;&gt;DataRegistry -->
<g id="edge3" class="edge"><title>BlankSlate&#45;&gt;DataRegistry</title>
<path fill="none" stroke="gray" stroke-dasharray="5,2" d="M107.04,-138.14C96.325,-128.62 84.313,-117.94 74.433,-109.16"/>
<polygon fill="gray" stroke="gray" points="104.762,-140.798 114.56,-144.83 109.415,-135.568 104.762,-140.798"/>
</g>
<!-- Errors -->
<g id="node4" class="node"><title>Errors</title>
<a xlink:href="Errors/index.html" xlink:title="Errors" target="_parent">
<polygon fill="none" stroke="gray" points="123,-37 65,-37 65,-1 123,-1 123,-37"/>
<text text-anchor="middle" x="94" y="-14.4" font-family="Times Roman,serif" font-size="14.00" fill="#ffcc00">Errors</text>
</a>
</g>
<!-- BlankSlate&#45;&gt;Errors -->
<g id="edge5" class="edge"><title>BlankSlate&#45;&gt;Errors</title>
<path fill="none" stroke="gray" stroke-dasharray="5,2" d="M130.38,-134.75C127.12,-116.85 122.23,-93.326 116,-73 112.26,-60.805 106.87,-47.533 102.37,-37.198"/>
<polygon fill="gray" stroke="gray" points="126.973,-135.586 132.15,-144.83 133.868,-134.375 126.973,-135.586"/>
</g>
<!-- LoadManager -->
<g id="node5" class="node"><title>LoadManager</title>
<a xlink:href="LoadManager/index.html" xlink:title="LoadManager" target="_parent">
<polygon fill="none" stroke="gray" points="273,-109 163,-109 163,-73 273,-73 273,-109"/>
<text text-anchor="middle" x="218" y="-86.4" font-family="Times Roman,serif" font-size="14.00" fill="#ffcc00">LoadManager</text>
</a>
</g>
<!-- BlankSlate&#45;&gt;LoadManager -->
<g id="edge7" class="edge"><title>BlankSlate&#45;&gt;LoadManager</title>
<path fill="none" stroke="gray" stroke-dasharray="5,2" d="M163.65,-138.14C174.63,-128.62 186.94,-117.94 197.06,-109.16"/>
<polygon fill="gray" stroke="gray" points="161.199,-135.633 155.94,-144.83 165.787,-140.92 161.199,-135.633"/>
</g>
<!-- DataRegistry&#45;&gt;Errors -->
<g id="edge9" class="edge"><title>DataRegistry&#45;&gt;Errors</title>
<path fill="none" stroke="gray" d="M69.012,-63.978C73.934,-55.118 79.287,-45.484 83.77,-37.413"/>
<polygon fill="gray" stroke="gray" points="65.8906,-62.3896 64.094,-72.831 72.0098,-65.789 65.8906,-62.3896"/>
</g>
</g>
</svg>
